/* XPM */
static char *_a7dce2836e44b3cce1b04ee19e8b508XYy8vmaICwXRHDNG[] = {
/* columns rows colors chars-per-pixel */
"64 64 163 2 ",
"   c #05265D",
".  c #09265C",
"X  c #0A2A5E",
"o  c #112B5E",
"O  c #072761",
"+  c #082760",
"@  c #062A63",
"#  c #0C2C63",
"$  c #062D68",
"%  c #0D2E6A",
"&  c #112E64",
"*  c #112F69",
"=  c #0E3166",
"-  c #0E326A",
";  c #123166",
":  c #13346B",
">  c #19356C",
",  c #16396E",
"<  c #19396D",
"1  c #0E3370",
"2  c #143572",
"3  c #183773",
"4  c #163A73",
"5  c #1B3C73",
"6  c #153A7A",
"7  c #1B3E7A",
"8  c #203E75",
"9  c #233E7A",
"0  c #1E4076",
"q  c #1D417B",
"w  c #234176",
"e  c #24437C",
"r  c #2A467C",
"t  c #26497E",
"y  c #2A4A7F",
"u  c #324D7F",
"i  c #1D3F86",
"p  c #233F80",
"a  c #1E4283",
"s  c #1F4488",
"d  c #234583",
"f  c #2A4682",
"g  c #264985",
"h  c #2C4C84",
"j  c #23468A",
"k  c #264B89",
"l  c #2B4D8B",
"z  c #324C85",
"x  c #324E8A",
"c  c #394F8C",
"v  c #2D5187",
"b  c #2D518C",
"n  c #335186",
"m  c #33538C",
"M  c #3A558D",
"N  c #35598E",
"B  c #3B598E",
"V  c #2C4E91",
"C  c #304F90",
"Z  c #2E5391",
"A  c #345593",
"S  c #3A5693",
"D  c #365A94",
"F  c #3C5B94",
"G  c #375699",
"H  c #395698",
"J  c #365B99",
"K  c #3B5D9A",
"L  c #3E6096",
"P  c #3D629B",
"I  c #3D63A2",
"U  c #41578C",
"Y  c #435B8D",
"T  c #405395",
"R  c #425D94",
"E  c #485E94",
"W  c #425E9A",
"Q  c #495F99",
"!  c #466196",
"~  c #456397",
"^  c #456095",
"/  c #436296",
"(  c #4A6193",
")  c #4A6497",
"_  c #4E6597",
"`  c #4A6396",
"'  c #476299",
"]  c #44619B",
"[  c #40629F",
"{  c #44639C",
"}  c #46659E",
"|  c #44649B",
" . c #486398",
".. c #4B6298",
"X. c #4A6698",
"o. c #49679B",
"O. c #4D679A",
"+. c #4A659C",
"@. c #46689E",
"#. c #4B699F",
"$. c #4F699C",
"%. c #4F689E",
"&. c #4B699E",
"*. c #506799",
"=. c #51669D",
"-. c #51689E",
";. c #50699F",
":. c #516B9E",
">. c #526A9D",
",. c #4260A0",
"<. c #4363A0",
"1. c #4563A1",
"2. c #4264A3",
"3. c #4365A1",
"4. c #4A67A1",
"5. c #466AA1",
"6. c #4E6CA2",
"7. c #4C6BA2",
"8. c #4E6DAA",
"9. c #506BA0",
"0. c #526DA2",
"q. c #556DA3",
"w. c #566DA3",
"e. c #576EA2",
"r. c #566FA5",
"t. c #526DA3",
"y. c #586FA3",
"u. c #596FA3",
"i. c #546FA9",
"p. c #596FA8",
"a. c #4E70A6",
"s. c #4F72A9",
"d. c #5670A3",
"f. c #5371A5",
"g. c #5371A5",
"h. c #5872A5",
"j. c #5A71A7",
"k. c #5B72A6",
"l. c #5975A7",
"z. c #5A74A7",
"x. c #5A72A5",
"c. c #5775A9",
"v. c #5474AA",
"b. c #5B74AA",
"n. c #5977AB",
"m. c #5B76AB",
"M. c #5A75AA",
"N. c #5778AE",
"B. c #5A7AAD",
"V. c #5A78AE",
"C. c #5D7BAF",
"Z. c #5B79AE",
"A. c #5777B0",
"S. c #5B75B0",
"D. c #5E7CB0",
"F. c #5D7CB1",
"G. c #6077A9",
"H. c #607AAD",
"J. c #607BB0",
"K. c #5F80B6",
"L. c #6381B6",
"P. c #6A84B5",
"I. c #6283B9",
/* pixels */
"F S F ' m - : - 7 P S W W 9 T Q x T W K R M : # 3 g V V P J Z N Z A A J n 8 * 5 B M *.R ..>.y.q.r.^ d.| C.y < o 0 t n N S A S F ",
"M W F m 3 : $ 3 J J C ,.p x T p A W W S M # . 5 e b k A I b b g b J J v 5 @ 8 } ^ R r.M w.>.w.m.^ m.^ C.w < = < w v A m F S S m ",
"W F W 3 * e 7 7 M b 3.h p T c x K H x B & # w e k l V I s k g D J m l 5 % < 6.( U :.Y :.R k.h.O.:.o.D.r < ; , w y m M D S S S S ",
"m ] 9 # 7 M J l 7 b l 3 H ,.p T ,.l m ; # & 7 g l s P j a k D b v g 5 # < F >.+.U G.( E y.y.h._ v.v.n : # , f y v m A M S m S K ",
"} e # 5 2.,.A m 2.7 2 ,.H p T H A j : e h ; : g l A a k g b Z b h : X ; m.B t.E E _ *.( l.C.O.l.l.B ; ; 5 w f l A G A A x K S S ",
"x # 5 D [ k J A G G 7 k j H W C d 2 r F | y # : k j g s b b k N , X ; B C.Y *.U >.>.Y G.z.( v.f./ < # 5 f g l A S S C x G S F S ",
"@ 2 g m m [ D J J j l 2 C A G d : 3 P / m h t = : q g g Z k N - @ : m ~ y.:.Y U y._ Y h.d.v.d.6.< X 5 e e k l G C C x G S H S S ",
"5 h m J J J G J d g j G 2 j 3 % : F W h M / $./ : = g b k b = = ; N c #.>.( E E G.Y k.l.:.v.5.: # 0 5 h k A A V V A H H H S S S ",
"b @.P A 2.G K l l l A l d 6 % 7 F M n F W 6.&.L L X : v h : ; ; 8 &.F O.-...Y k.-.Y b.9.F.F 2 - 5 w e l V k l d G G G H C ,.S 3 ",
"5.5.m 5.J K l G A G A k 7 $ m ] z M ^ +.j.R Y o.C.B X ; 3 & ; > ^ R ] q.Y z E e.U w.i.i.W - 2 3 q g l k j V d V C C C A 4.C > 3 ",
"3.F | m P d P Z J l l 7 % S K m F +.( ! Y _ h.m./ #.< o ; & & M r.M t.( +.u q.( Q r.+.f - 1 6 a k s d l k d j V C C G ,.x 2 * W ",
"P F A [ g J Z P A A a O M F J / } +.6._ q.m.W ( v.$.< ; X > r W Q +.+.W y.R d.B t.S 9 % - 6 a a a a j g i i A j k G K l 3 > ] J ",
"/ R J A D J P b Z q # l A R } } +.R +.q.R E j.h.0.w X ; > ! z t.Q q.E w.9.=.o.~ M 5 , - 6 a i a d d s a j A V V I D k , 3 A 6.3.",
"/ J F J J P b Z q $ e / F &.+.R +.q.R E p.y.W c , X ; w } e +.R 9.Q E p.R p./ F 0 , $ 6 a q a i s a j k k k V G Z e 6 4 f s.F 6.",
"F | / P D D b q - a [ | ] R O.r.W R t.t.E z O.w X X w ( z 4.Q =.Q U p.R y.( B w 4 @ - q a q 6 a s j j j l l J l g 6 2 v v./ 5.7.",
"} J R L P v q $ q | / B B +.( ) +.+.S S i.S.w ; o y n n t.W +.E T _ =.=.w.F < , = , - 4 q 6 s s i j j j V G g g 2 5 L A 5.J 8.P ",
"W R [ / d q = q 5.J F +.+.-.+.Y R >.$.N.g.8 & X f M +.+.E +.U c ( :.:.O.N 0 $ 0 q g q $ 1 a q d j j j V Z a k 6 4 s.l a.L 6./ | ",
"' / ' g g @ 0 P @.| #.+.M M E w.0.#.f.^ : # # h R +.R T Q U T E e.Y 6./ 0 0 $ g k k Z q $ - d q s j Z V a b : 5 s.A &.7.| &.&.F ",
"K / m e   q 5.@.| | M M =.p.4.+.0./ w # & & M R +.R Y W E c E =.O.d.L w = X q b k b D k 4 $ 2 a s Z j i k 2 7 v./ w P | A./ M / ",
"} M e # e @.5.F M R 4.t.+.=.+.M n w # < : : ] R M T Q E z Q =.=.O./ t = = t D g Z D b Z Z 6 $ 6 g 7 6 d 2 6 s.o.v v.| J.F M | / ",
"F e # 5 @.F m | #.4.+.R M n n n 8 5 & # * > W x W W F f ) X._ d.] y ; & g D v N Z Z b Z Z j 7 - $ 2 g : 2 N.| n 6.X.c./ n o.L ~ ",
"e # w a.N F a./ R M M T F +.^ y & & 8 e > * 9 5.R n r +.^ O.d.( y & & h D b D P D b I Z A l A d 2 -   0 K./ n | 6.B.X.n / B o.~ ",
"; w &.N } | F n T +.6.r.m.v.m = ; 7 n A 7 # e F e x #.F +.&.B u ; @ e / k N I Z N J Z P k G A b : = 5 K.m u $.:.f.X.u X.L X.o.| ",
"< | F 5.R F R t.O.W M y r 8 = = 3 m A [ x x @ > M 6.M } | B B = X t P A N D P N I J I Z A A D 7 $ 5 N.m n v.f.v.) M X.L ~ ~ a.y ",
"h L ] R | o.#.n z M +.0.n ; = , 5 [ P h 3.m 5 ; * d 6.| N N = = f P m L P P D P I P J A b J 7 @ 0 v.v | L.} 0.] :.t.R } +.a.v : ",
"/ R F 5./ B m M R O.] R = X < t 7.J A 5.m 8.h # : O e F N = = t @.m L P P P L 5.P 5.b Z I 0 # e L h V.V.#.+.} t./ ^ } P m.M , ; ",
"B +.&.| M / o.e M W n & = , t a.P x | x | h | v : ; # 5 = = t P A L L P P L 5.P P v L 5.e @ 3 h L B.6./ R } 6.&.F ] R v.x : ; A ",
"( R +.F f.B v o.! R & # 0 y v.P h 5.n 5.m P @.@.m : ; # 0 t P N D @.P @.P P 5.P N L P k # 3 d 8.v.L | F t.t.] | +.F 6.M 3 > [ F ",
"] +.W &.h ^ L Y M ;   y n g.L v &.m #.v L o.| | l 0 = = g P N L @.@.@.@.P @.@.N L N v X : m A.6./ @.h / @.@./ | J 6.M 5 : [ F K ",
"+.z +.B F / / n ; . n n a.L N @.m @.N L @.| | t 0 # - t L N L I L L P L a.@.P L m t   = M I.[ L L n L g.o.L @.L 6.A # $ m A | A ",
"z E W M $./ N < X B v a.B L L m a.N / #.@.| F y = , q A D P P L a.L L a.5.a.N @.0 X , 0 N.N 6.n | ^ g.B #.| J 5.v : , 0 l F m F ",
"z Q M O.^ n < X u u c.B n | B a.m / g.| F o.P , # 0 N P P P P I L 5.5.5.a.L @.0 = X 5 F F | N 0.| #.F a.B F &.v # 2 2 v M F m S ",
"X.u u K.u ; X w B l.B n / M v.v X.&.5.u a.5.@ = - t L P L N J L 5.@.a.a.7.t , # = w B o.L B [ / | F #.m M | d : 2 7 l A W h F m ",
"X.u K.u < o w X.l.M ~ F / g.z &.@.@.L K.L , - 0 N a.D P 5.J R / 5.&.a./ t 0   # v L @.N | F 7./ M | h L 6.d : : 7 l l J h K S x ",
"( / u < ; ; u P.B / B o.} B a.#.@.~ g.L 0 = < N N L | L M A B 7.a.a.@.0 q = @ D L @.m &.F a.x 4.J m L 7.f # : e b j J l l W M z ",
"u / < ; ; u K.u Y L a.| R v.o.| 5.c.v = X 0 v v v g v A / 6.@.6.@.L 5 5 = = P F [ A 4.F 6.m 7.| h | 7.l * : 7 V k G A d H K f c ",
"X.< o o w K.u K.B d.L t B.a.X.g.5.N = @ < t t v N B @.@.@.L L L F 7 e ; - J P P S ' D 3.C i.S l 6.J 7 * % * 7 l l D d G H x f W ",
"t ; ; u K.K.X.Y K.u u X.o.a.@.X.N = X 0 t v N L L L B N ~ L N N w 3 O % 2 0 | J [ K P A i.l C i.D 5 3 : % * % d K d l K f f W / ",
"o o u L.K.u X.K.u u &.X.a.a.L y - @ 0 N A P F F n L L @.N n N 0 5 # ; d 5 : M P K S C 8.j S i.G A 2 2 d p : % : j j G l 9 F W M ",
"o u P.>.L X.K.u K.L X.K.~ N t = - g v N D v v L | B B v N @.t , # : v.A.g # 5 [ l ,.i.p H 8.K 2.2 1 j C A l p i 1 q d g J J F e ",
"Y P.Y *.K.( K.( $.a.~ B B u , = t N v v v L L N M m v | a.h ; = ; F.6.6.L 0 X l F 5.d m [ K 1.3 % V l S J d K K a @ d A F F e ; ",
"L.( *.K.Y *.( X.a.M B L 0 0 = , v v v N Z v N N x S | v.m ; ; = v.6.N.5.F m.h # v y m W [ ,.3 % k C G K m F K A d 7 1 N F f & : ",
"_ d.( ( u K.K.u B ~ &.y 0 X = = 0 t t g l b l v F 6.} y ; X X L a.B./ o.V.5.F.v   5 K 3.3.9 : l A S J F x F J h l g 2 2 e # > m.",
"Y Y ( ( X.( X.u o.| e > X 0 0 @ $ $ q g e m ' K 5.m z 5 = = / B.c.o.f.a.6.v.L 6.K O S | e 2 A l G S J M K F m h v L N , # : t.6.",
"Y ( *.X.K.X.X.K.v.+.: ; w e e g 2 : : S G K A K x F 5 # X | K.f.#.f.6.d.| 6.v.v.6.M - 6 2 D Z D K W h m | n n v L | N ; * c Y n ",
":.:.*.u u K.K.( +.> . 9 n 5 f f e 3 > e A / m M 5.e # > &.B.f.f.6.f.5.&.F.v.[ M m J - : J G P J J x x M N n v / | m : = 8 B O.( ",
"*.Y X.K.K.u Y ( : # r x 5 r z 8 m e 9 . g h J | w # : @.L.@.~ v.f.6.V.g.F F F 7.v.e 6 F m A P K m m M F m B / / B , X t #.o.) l.",
"Y *.u ( ( ( K.= & 8 M r d M d h x r S c % g / e # , | 6.~ v.v.0.v.X.R | 6.6.7.i.g 3 A G J P D l b N D M L o.@.N , X 5 X.o.d.l.) ",
"d.*.*.X.F n : > e m z 9 n f d S f S 1.x m # : = , / c.c.J.q.O.>.B f.&.@.K.P I 0 - N A J D b Z Z D A N L / L v : X 8 >.0.j...U U ",
"Y ( X.X.M 5 % e A A 9 x n 9 S f x 2.f T f & = = o.K.C.6.( O.O.q.f.a.g.K.P P 0 0 M J J D Z P D L A F F [ L 0 # X n 0.q.O.R R >.u.",
"Y ( K.u e @ e K S h S S r c h x [ z K e @ ; 3 F g.a./ o.+.M q.M n B N N v 0 0 v J P b J I P L Z N L L @.y = ; B g.| #.R u.>.U Y ",
"X.K.w < # e A A m f c f f S f 1.c S g w ; ; M N.a.c.o.o.( O.+.R ~ a.@.N $ @ Z I b Z J P J D D P L | P L = ; , n 6.&.+.h.( u Y _ ",
"/ w 0 = t u D J 9 S z 9 W f 1.c F r F % 5 h v.C.B.o.6.} h.r.t.v.a.a.0 @ 0 Z I k P Z I J D D P P | @.N X = ; u f.! f.:.n U _ *.( ",
"u = , t N N J v S x r R f Q x S h K ; 9 e t.F.} ~ B.v.d.6.6.R ] L 0 = , D Z k Z P I Z k P P P P @.y X , = = w L f.! z n x.Y Y :.",
"< X t u v L v b A f +.c T x S c L = : e R m.} t.B.+.6.] / 7.7.4.0 - - N Z J I J Z k I I P @.P N B = X w u ; = ; n X.~ o.! ( O.B ",
"= u u u L L g P x W T S x M M K , ; l ' F./ 6.r.O.+.5.v.7.7.4.e = = s b J J Z Z Z I I P P N L / X = w X.B N X ; 0 / o.) ! r y ! ",
"8 F l x K x A S c W c M T z W > ; F 6.g./ 6.r.6.4.t.' M g b q 0 = 0 m J D l A I I J I J J @.L : X e $./ 0.v < # X < | B w / 6.8 ",
"M f m F J C K x M x T S z Q > % ^ &.a./ t.5.0.0.t.y d 3.7.v 0 , q L J b k P A I I P P P 5.L # X w #.&.6.B B n / X = , y / &.r # ",
"m S S S g W x J S S c x E 3 . E | v.+.] 6.6.6.^ h S | / J 7 $ s D A b Z I K I I D P 5.L L , = < ~ :.| $./ y v./ n ; = X w w . > ",
"M m K c ,.S G S S M z E 8 + R 1.6.^ R #.} &.| m / | g m 6 - b Z b g l s I P G I P s.N t : # 5 n 6.&.6.~ n 6.| / X.n # ; ; : : f ",
"S W S c G S S W c M R > + c d.R t.M 9.4.B 6.B F 7.h / 6 1 k D Z b k s s A G P J N v P 0   w J ' #.q.+.S 6.| M @.F N.B % # : 8 l ",
"c R m K S G ' m E E > . 9 y.M 6.M q.q.T +.6.f 6.W J 2 - q b Z Z k Z Z P I P v D I L 0 @ , 6.n t.6.+.+.Q 6.S v.F N.F F ; % 7 m m ",
"S x W S S W x ' S > ; > 0.B 6.M Q Q E W #.B ] F e 5 - 2 s D V V A J J J b Z I P L - X 0 g.F +.t.t.4.+.i.M i.F v.h w = ; q b v A ",
"R S S W K G 1.z > * > O.F ^ L F U U M +.Q B | m , - , g Z k Z Z J G Z J P P L v - = - o.#.N 4.4.i.W i.W g.F F.v 0 < - q m m m K "
};
