/* XPM */
static char *_18dd12779ab4bb1fa4db85300b62d03EyLGWfYRRcULpWD3[] = {
/* columns rows colors chars-per-pixel */
"64 64 210 2 ",
"   c #0C4600",
".  c #074C00",
"X  c #0D4C00",
"o  c #134500",
"O  c #1B4500",
"+  c #144C00",
"@  c #1A4C01",
"#  c #0E5200",
"$  c #145300",
"%  c #1B5301",
"&  c #165A01",
"*  c #1C5B02",
"=  c #1B540A",
"-  c #1D5D09",
";  c #214D03",
":  c #225403",
">  c #235D03",
",  c #295F01",
"<  c #215509",
"1  c #225C0A",
"2  c #2A5D0D",
"3  c #265F10",
"4  c #335E15",
"5  c #156302",
"6  c #1D6304",
"7  c #176907",
"8  c #1F6904",
"9  c #1D630A",
"0  c #1C6B0B",
"q  c #1E7200",
"w  c #1F6010",
"e  c #236304",
"r  c #296405",
"t  c #246C04",
"y  c #2B6C05",
"u  c #23630B",
"i  c #2B630C",
"p  c #246B0C",
"a  c #2B6C0C",
"s  c #31650E",
"d  c #326D0F",
"f  c #257305",
"g  c #2C7305",
"h  c #257A05",
"j  c #297A04",
"k  c #25730C",
"l  c #2B740C",
"z  c #277B0B",
"x  c #2C7C0D",
"c  c #317404",
"v  c #3B7605",
"b  c #347A06",
"n  c #3B7D06",
"m  c #33750D",
"M  c #337C0C",
"N  c #3C7C0C",
"B  c #256511",
"V  c #2B6412",
"C  c #256C12",
"Z  c #2C6C13",
"A  c #2F651A",
"S  c #2E6D19",
"D  c #356614",
"F  c #386717",
"G  c #336C14",
"H  c #34661A",
"J  c #336C1A",
"K  c #396D1D",
"L  c #3A6C15",
"P  c #257212",
"I  c #2C7313",
"U  c #2D7A13",
"Y  c #2E7419",
"T  c #2D7918",
"R  c #337414",
"E  c #397415",
"W  c #337C14",
"Q  c #3A7C15",
"!  c #34741B",
"~  c #3A751C",
"^  c #357B1B",
"/  c #3B7C1C",
"(  c #376B21",
")  c #3B6E21",
"_  c #357322",
"`  c #3B7522",
"'  c #367B22",
"]  c #3C7B22",
"[  c #367228",
"{  c #3C7629",
"}  c #3C7D29",
"|  c #416D1E",
" . c #417D16",
".. c #427C1C",
"X. c #427723",
"o. c #437C23",
"O. c #497F23",
"+. c #41762B",
"@. c #447C2A",
"#. c #497E2A",
"$. c #467D31",
"%. c #4D7D33",
"&. c #2D830B",
"*. c #378106",
"=. c #318806",
"-. c #33830D",
";. c #3C820D",
":. c #33890D",
">. c #3E8A0E",
",. c #2E8212",
"<. c #348314",
"1. c #3B8414",
"2. c #358A14",
"3. c #3B8B15",
"4. c #35831A",
"5. c #3C831B",
"6. c #368A19",
"7. c #3C8B1A",
"8. c #3D9215",
"9. c #3D911A",
"0. c #3D8322",
"q. c #378821",
"w. c #3D8A21",
"e. c #3D8029",
"r. c #43840E",
"t. c #438514",
"y. c #4A8515",
"u. c #448A14",
"i. c #4A8B16",
"p. c #43841C",
"a. c #4A851D",
"s. c #438C1C",
"d. c #4A8D1B",
"f. c #528C1C",
"g. c #429116",
"h. c #439817",
"j. c #43921C",
"k. c #4C921D",
"l. c #449A1B",
"z. c #4E981C",
"x. c #53921E",
"c. c #59941E",
"v. c #51981E",
"b. c #448323",
"n. c #4A8424",
"m. c #458B23",
"M. c #4F8D25",
"N. c #4A8C24",
"B. c #468129",
"V. c #45832B",
"C. c #4B852A",
"Z. c #46892B",
"A. c #4D8E29",
"S. c #4C8B2B",
"D. c #538522",
"F. c #538C26",
"G. c #51852D",
"H. c #508C28",
"J. c #528C2C",
"K. c #459322",
"L. c #4C9223",
"P. c #4D9923",
"I. c #46912A",
"U. c #4D922B",
"Y. c #4D9A28",
"T. c #529424",
"R. c #599624",
"E. c #539A25",
"W. c #55922B",
"Q. c #55952E",
"!. c #52942B",
"~. c #5A942D",
"^. c #549A2C",
"/. c #599D2B",
"(. c #448333",
"). c #4D8533",
"_. c #4D8A32",
"`. c #508632",
"'. c #538D31",
"]. c #588C37",
"[. c #578C39",
"{. c #4F9331",
"}. c #4C9931",
"|. c #579331",
" X c #539631",
".X c #549233",
"XX c #599231",
"oX c #5C9230",
"OX c #5A9433",
"+X c #579B34",
"@X c #559B32",
"#X c #5B9C33",
"$X c #569238",
"%X c #5A933A",
"&X c #5C9B39",
"*X c #619B2B",
"=X c #609C3C",
"-X c #56A027",
";X c #5CA12D",
":X c #56A235",
">X c #5CA133",
",X c #5FA930",
"<X c #5DA13A",
"1X c #61A434",
"2X c #65A73E",
"3X c #68A73C",
"4X c #65A83E",
"5X c #65AA33",
"6X c #649543",
"7X c #6CA74B",
/* pixels */
"/ ~ X.@.H   = + u { _ ' [ w ! b.a C.} ` { ( + + * k I U q.4.x <.,.&.4.6.T e @ > ~ E .X .D.O.XX$XoXn.'.F. Xa 6 + * a R ^ 5.W / / ",
"X.B._ J % $   & } S ' e.9 C / 1 ] ! X.+.( o @ $ Z I k 4.6.k <.z x 4.6.k 6 + : '.o./ J.a.D.~.Q.XXn.~.J.OXi $ X u u R / Q ! Q / ~ ",
"] J ` $ + Z I * P Y } 9 * } S Z _ } J H O @ - S Y p T w.f f k <.7.Q I > + & %Xn...XX..a.S.Q.W.M.W.H.=XL + * * a I W Q ^ ^ W ] ~ ",
"( (.* $ y 0.Q ^ 9 Y 9 9 } S Z ] ] Z V @ o + B S I Y ^ f 8 z U <.l Z % @ 2 X.G.b. ..Xa.n. X|.Q.M.W.&Xs @ @ - Z p I W U ^ / ! / ] ",
"(.9 X t L.s.W U q.7 5 ' Z B _ [ ! V $ G ~   % B C T k p k <.W U R + O : 6XG.G...a.a.J.m. X@Xn.~.&X~ @ + i B P ^ T W 5.! ! ] ^ ^ ",
"- # 6 5.j.M <.x w.4.5 6 0 _ [ J < & ! b.Z.u o * Y 0 f 7 l k W ! + @ : @.%XX... .F.F.Q XX@Xm.&X.X/ + X u u I I I W / I ^ / R p.! ",
"# 5 M M <.7.:.2.<.f k 5 P ' S = $ > S./ Z I A $ $ e 8 U U I Z % o : K C.G.XXn...oXp.a.#XQ.'.$XC.+ & 1 u k k I ^ ! I ^ ! ^ / R ^ ",
"8 W <.<.7.6.<.2.q q ,.T * - $ X * n.^ I ^ / .XB.% $ Z I I Y + @ % ] ~ J.n.n.X.F.OXQ ~.~.J.XXO.$ + u p t I U T Y C ! ! ^ / / ] G ",
"-.Y.6.7.9.,.2.h z U 7.P I & X Y n.l R / S..Xb.0.o.+ $ A V % + @ V V.X.S.n.p./ &Xn.Z.W.~.&XE $ $ 6 0 k U P I I C ' T W W Y ] J @ ",
"P.j.<.K.6.6.z 6.<.6.T I & $ Z.b.y W s.n.S...b.!. XZ @ ; @ o @ 2 ).! V.S. .m a..XE |.|..XR $ % - C 0 k 0 T C C P T I T ^ 0.R + i ",
"k.&.8.&.6.z ,.<.w.U C & $ 0.1.Q 6.m.N.S.o.'.J.o.] _.O ; ; O @ X.G.~ C.n.N.s oX..S.!./ u $ $ 5 P k k 0 T 0 9 0 ^ I T / ] Z $ u J.",
"3.3.7.7.z 6.6.,.U q.& # 0.R p.s.L.s.n.b.J.n...J.$X@.; ; O 4 1 ].X.n.b.n.C.n.H.Q !.u e $ # 9 0 0 0 7 P 0 5 p U P I e.] B $ r U.5.",
"3.7.3.<.<.,.6.W W & & / ^ N.m.M.5.d.!.a.b.J.'.$X@.; @ @ H ) ` G.n.F...$Xo.XX..D.a 6 & # - C 0 7 7 P 0 7 P 0 I I 0.! B $ e U.5.l.",
"s.j.:.s.6.w.W W 6 X ~ / S.N.m.1.!.n.Q S.J.n.~ 4 o ; @ H @.B ).X.G...n.J.n.S...Q 2 + + u C 9 0 7 0 0 0 P 0 Y P ' C Z X a / U.j.z.",
"7.6.m.<.K.<.l 5 $ R Z.N.p. .F.N.Q b.!./ R ..C.: O o J ` ~ _.B.S.O.E oXa.J...R * $ @ $ * 0 0 5 6 0 0 P 0 P Y ] C B $ I Q :X<.k.8.",
"s.s.s.6.^ I 6 X ^ m.n.t.N.N.p.Z.S.n.Q b.%XC.; O @ ) ` _ V.Z.@.` G J.n.J.n.a > $ & : % $ * 9 9 7 0 0 0 P Y S B B $ / w.s.j.j.P.s.",
"s.5.m.4.I 9 X ] N.1.s.L.M.n.b.^ a.J.J.%X%.; ; O F X.C.B.0.o.K G G.C.'.n.a * * & k I p + $ 1 w 7 w 0 0 Y C B w X ! @X1.k.g.P.s.7.",
"d.5.5.R * + ! n.p.T.N.1.R m.n.Q.n.'.C.D ; O ; | #.X.X./ b.! D G.G.J.b.d , % # ^ P k ^ e + $ 0 0 0 w ' C 9 C . q.<Xg E.3.E.P.3.m.",
"p.s.R * $ ^ Z.U.!.Q Q p.Q.m.H.p.n.E : O O ; %.+.X.! / / G G J.n.J.b.E * + * ^ U z 6.4.I 1 X & 9 0 S - w C + / 4Xx b <.Y.l.1.t.K.",
"m.a e   ^ U.K.W / '.J.J.m.p./ E d & ; ; O @ $.X._ S./ R D `.o.S.N./ * + * / Q b 6.,.z <.4.& # $ w # B C + ^ 2Xb 2.E.-XY.M 1.s.N.",
"! * $ 0.K.<.5.m.!.C.o.R y m d G * $ % @ = = [ [ } { R G '.X.C.n.~ : X $ b.<.x 5.6.z 6.W z T C X X = * X / <XM *.z.P.P.M 1.s.K.s.",
"9 + 5.m.1.K.I.0.~ ^  .a.n.a.G.& + % Z B $   B $.[ B J )...C.C.X.> + * 5.<.&.2.6.m 4.W x <.l I S $ X + ] <X-.M k.P.P.c t.m.p.k.1.",
"$ ] p.s.L.p.W b.S.N.!.S.D.C.: @ @ a R 0.9 $ # B 3 $.[.K `.o.` > @ * 7.6.=.2.3.<.1.p.<.<.x I ] V % + b.&Xl M ^.k.U.n t.s.p.s.s.1.",
"Z Z.n.s.Q p.S.S.5.l a m i : @ @ > Q 7.M 4.' X X H +.{ ).X.~ - + > s.m.&.:.8.2.-.m.<.6.z ,.4.i * + o.!.c L./.P.P.s.s.d.u.L.N.p.e ",
"W m./ m.Z.N. .y c 5. X$Xi @ @ , E L.g <.-.1.r @ o ; ).{ ` 1 X e m.7.2.2.8.3.3.P.3.s.j U w.a * o p.p.1.;XT.L.u.L.s.s.s.s.N.N.r $ ",
"m.p.m.Z.m.m  .m Q / ] 1 + @ * ..!.g 5.Q 3.t.y > o @ = H V + 6 1.j.:.2.j.8.9.s.u.j.j 6.5.^ $ + ~ l !.#XN.d.s.!.L.5.s.L.s.M.r + i ",
"1.N.N...Q N.c c a.$Xu + + > n.Q.b s.;.;.u.g T. .> o o @ + e s.j.=.9.8.7.s.3.K.7.2.u.W b.& @ a W /.^.N.s.L.d.d.u.i.u.1.L.e + G @.",
"m.N.o.p.N.g p.p.~ : @ % R b. Xy s.x s.5.c F.a.d...> @ @ * m.8.=.l.8.l.l.s.K.s.9.-.Q S.@ o i p.@Xs.s.<.m.N.Y.3.k.u.5.T.i $ ~ V.X.",
"b./ a.b.m p.W ^ 2   : ..Q !.g L.x s.1.M M.M.d.5.r > + 2 0.K.-.h.g.l.g.s.u.K.7.6.Z...% @ u &X@X1.L.Q 5.s.P.1.U.;.1.!.p + Z B.0.b.",
"b.Q m.R Z.b.o.u o > .. .T.g T.b s.5.b k.M.d.Q y * # r 5.s.2.j.8.8.l.u.d.P.P.<.U.a % + > $XS.7.d.Q Q L.s.5.U.<.N.Z.e $ $ ! ^ / Z.",
"t m.W b.n.~ 2 + u /  .T.c u.b s.;.;.z.k.s.M U.e # 6 x <.j.K.j.9.l.j.s.k.P.N.S.R % @ * R s.5.p.p.A.m.s.N.N.5.m.B.* $ & Z T m.l Q ",
"Q 5.Q b.` 2 @ : E s.L.c t.;.k.u.;.i.z.s.;.U.y X & f j.j.P.-.s.j.8.j.z.T.W.m R % @ % E 5.P.-.m.b.N.s.N.m.c U.] * # & C ' 5.I 1.W ",
"s.^ B.@.V @ % E E.i.j u.n k.;.r.z.T.;.3.}.a $ + t 3.l.3.j.1.1.s.P.k.k.^.x * $ X > X./ N.<.s.s.U.Q m.W Q }.^ & X & C ^ 5.I R / I ",
"5./ B.3 @ : ..#Xt.n k.*.k.r.u.g.k.;.s.U.a X $ ^ m.g.>.g.;.b 6.N.L.s.U.m y $ X i B.b.A.5.s./ b.1.p.W ^ _.T $ # - C ' ^ T l 0.a I ",
"] C.i + $ r #Xt.n y.;.E.>.u.k.z.r.z.T.r + 6 R <.1.-.-.*.-.j.L.K.m.U.a e $ X a B.Z.W S.b.S.p.m.I.l 5.{./ - % & Y ^ I / 0 0./ a I ",
"#.i @ & e M.t.d.t.i.T.b P.E.u.u.z.N.> @ % l l f f x 3.j.P.7.K.5.m.y e & + R V.m.^ A.Q U.Q b.w.t 5.U.Z - @ @ u ^ p T P T ' ! e b.",
"H o * e y.d.d.N E.k.y ;.k.d.k.E.N.5 + * d y W 1.j.m.K.<.6.p.7.1.t > + + * ! S.W I.l !.i S.w.l I.{.* 6 + @ @ * C T I p ' ' u / / ",
"@ @ , a.R.x.i.E.u.g g.i.v.T.k.1.& X > d m 5.3.6.<.4.6.Z.b.1.W r 1 % + - = > / Z.m N.l !.^ a {.q.l & $ * * $ + a ! p ! ! 9 ! o.] ",
"@ , H.*Xy.y.x.t.;.k.k.z.k.t.m > + * ! Q 5.1.M <.1.w.w.W M 4.a , % + o.S.a + m ^ b.! U.I I S.] ] u $ Z ! Z 6 * + * Z u a ! ] } Z ",
"r ~.R. .c.c.d.z.u.k.z.>.t.m > @ 1 ] / W x M <.4.5.^ I U I.4.> + + J.=X&XW * * o.^ S.l I 5.b.@.Z # Z t / 4.P ] ! $ $ B Z ! _ ! + ",
"@Xy.c.c.y.x.k.k.E.u.*.t.b r + < ~ ! l I <.<.W W l l p.}.^ > % + n.#XT.!.Q N.$ * V.Y R 5.b.0.! X a I W 4.T U ] ] B $ 1 ] ` J $ X ",
"d.^.u.r.k.r.k.y.;.;.d.Q r + @ @ V R I t k U l a 5.w.U./ > + + / ~.;Xd.t./.!.U.* $ a ! 0.S.! X p I T 4.4.z w.^ Y G i $ B Z + + ).",
"r.r.i.u.i.k.u.r.k.d.W >   * < + $ % 5 U t I I m.w.w.I : % @ R ;X5Xi././.L.@X@Xb.6 # Z.V.Z $ i p <.,.,.W 4.5.I l l b.V $ + + B.%X",
" .r.i.z.u.x.z.u.u.p.> + < 1 + 1 $ X 0 l Q W Q 0.U W u + @ o.2X/.z.-Xk.T./.d.m.@X Xu 9 V # W 5.U ,.6.,.U b.W z l ^ 0.o.% + ! n.~ ",
"i.k.d.d.i.t.r.z.T.> + = ( B u B $ - $ Y 5.5.6.t b.Z + $ o.#X;XE.h.v.;Xx.L.^.+Xm.Q I # * ^ ^ <.7.6.,.f <.1.l g 7.m.0.> @ 1 m E p.",
"x.y.r.r.t.u.d.U.e $ & ` w - Z - _ * + X ! I l V.! + $ b.3X^.u.E.;Xk.E.>XM.t.N 5.U.^ * ^ ^ 5.<.<.x z W x l <.p.m.4.* + > a.Z.p.d.",
"n r.r.y.f.R.F.r X - ' - 9 ' 9 J B 1 ( B # ! V.S   $ S.#Xd.E.;X/./.T.L.5.s.L.!.#Xp.& ^ T 6.2.6.U Q l 1.<.6.m.m.p.e + > N.a.a.T.T.",
"z.E.x.k.a.a.> $ * _ P 9 S C 1 Y 2 ~ { _ - $ - + + N.^.-X,X-XT.d.t.M.!.E.E.!.!.R $ R <.7.4.U <.U W 3.M 6.7.K.^ * @ *  .T.R.T.t.b ",
"1.;.t.u.Q e X 1 ! R 9 I ! * ! B S ] S S 3 $ X + n.3X1X-Xk.;.;.^.E.^./.U.@XI.a # a 5.1.:.x <.<.<.3.M >.7.6.r + @ , N.c.f.y.v y.~.",
"t.T.^.5.8 $ * ^ ] u ! ! - Y S S } ! _ w +   $ 5.#XR.d.u.1.n -Xg.u.P.s.5.Q * & ^ 6.K.j :.2.<.7.1.*.>.7.L.! $ @ L oXa.f. .y.R.y. .",
"k.M.Q t $ & ' / ! P R B B _ 9 } S ! C & X $ b.&XN.p.d.d.L.P.u.-.-.p.N.5.$ $ / w.<.j :.3.3.7.W 6.2.j.m.V.* @ % ~ O...f.R.y.v  .y.",
"N.l e + u ^ ! ] 9 / Z u B.C V.S _ u _ $ * Z +XQ./.^.d.T.N./.^.^.^.U.W $ + ! m.x &.&.2.9.:.-.7.s.P.m._.$ @ @ e J.n.F.f.N v y.i.y.",
"R * & 1 ! ` ] P ^ Y u ! S ] S ! B ] $ e l S./.^.L.Q././.@XU.L.m.m.Z + $ ^ m.U ,.7.9.6.&.1.K.j.P.m./ @ O o ; K S.Z.p.g N d. .r.d.",
"* + > Z _ ! ^ p Y p 0.Y ! ! _ S ] % * i d.1XL.U./.!.!.5.m.L.m.S.Z . & ! Q &.&.7.&.z 2.8.j.s.g.3.p.> o 2 4 @ o , n.p.1.5.p.d.T.t.",
"X i ! R ] ^ C ] Z ] / ! R ! B ] % $ a a./.t.!.>XU.L.m.;XY.@X Xa X + Z 5.,.<.2.&.<.l.7.9.j.3.s.F.@ o 2 '.X.2 ; : r K.s.m.m.y m M ",
": ^ I ^ ^ l _ Y ! / ^ ! Z V #.% + / S.@Xd.Q.Q.L.m.^.K.5.l l Z & $ a I <.2.&.&.2.7.9.3.2.3.L.m.* o i G...$XG ; o + t N.1.e o.S.a ",
"E Z R W W R / B J Y ~ Z a O.: @ b.C.OXp.M.Q.!.L.^.g g 7.Z.l & & u Q <.<.z &.9.8.2.3.8.j.P.N.* o , .Xb.$X..W ^ ^ @ + , y b.'.D @ ",
"^ I ^ ^ p 0.I ] R ! ! J #.% @ #.S.!.N.n.U.N.N.S.m m 5.I.5.5 # a W 7.M x 3.7.6.3.8.3.j.P.s.* @ @ C.S.S.b.5.l U.A.s @ @ : G , @ @ ",
"a I ] a 0.E W R ~ ~ J X.: O X.`.F.N.o.J.C.S.S.c p.m.t Q 6 # p 4.x j f j 6.:.:.9.3.k.5.p.> o > / J.m. Xm.l  Xm.m.n.s @ ; ; @ @ V ",
"q.0.R / ] / ! o.A R +.1 o K ].n.M.E S._.] S.Q p.d.l Z.9 . Y W I x j j f &.2.8.3.7.6.d.% o 2 X.J.N.W.p.5.N.U.Q Z.5.7XK @ O ; V ! ",
"R / ! b.~ ! o.Z ] ` + @ 2 ].O.S.R !.J.b.`.S.E b.b.^ * $ C I 4.z l k &.7.7.:.&.:.m.m.* @ , '.~ .Xn.F.a.N.S.p.S.p.@X/ @.@ @ u ! Y ",
"0.G @.R X.@.G _.` = o 4 [.X.J.G n.b.b.b.n.o.C.C.i 1 # & p 4.T x 4.q.6.2.2.6.j.K.n.& o 2 `.o..XS.$Xn.H.n.5..X/ #Xm ! @ % 1 _ Z / ",
"] ` ' ] / ~ `.H @ @ 1 ).! C.X...G b.E a.n...).` = X $ B ^ T U 4.4.4.W 2.3.7.s.^ & o - _.C.X.S.'.S.S.$Xp.#X .=XE i $ X 1 ! ! / ] ",
"` ` ] ] ` +.< + O < +.@.] o.L / ] R b.d. .n.` < + = Z ] I T 6.q.^ ^ 7.6.2.1.5.$ $ * J _./ %XC.'.'..Xo.&X..#XQ e @ % u ! ^ R ~ ` "
};
