/* XPM */
static char *e7e5f013e3fd4af8d6ddb877de4bbbbeeOGEHmDXlQFjTLxE[] = {
/* columns rows colors chars-per-pixel */
"64 64 193 2 ",
"   c #003635",
".  c #003B35",
"X  c #003D3A",
"o  c #004037",
"O  c #00423D",
"+  c #003E40",
"@  c #004443",
"#  c #014A45",
"$  c #094A46",
"%  c #004648",
"&  c #024C4A",
"*  c #0A4C4B",
"=  c #015147",
"-  c #03524D",
";  c #0A534E",
":  c #004F50",
">  c #124F50",
",  c #045452",
"<  c #0A5553",
"1  c #055954",
"2  c #0B5A55",
"3  c #065759",
"4  c #0E5759",
"5  c #075B5A",
"6  c #0C5C5B",
"7  c #135654",
"8  c #125A56",
"9  c #185957",
"0  c #135C5B",
"q  c #1B5B5B",
"w  c #066056",
"e  c #0D615D",
"r  c #13615D",
"t  c #1C625E",
"y  c #20685D",
"u  c #065E62",
"i  c #0E5E61",
"p  c #135E62",
"a  c #1C5E62",
"s  c #0C6264",
"d  c #0E6964",
"f  c #0D666A",
"g  c #0E6B6A",
"h  c #146463",
"j  c #1B6564",
"k  c #146A65",
"l  c #1B6A65",
"z  c #13666A",
"x  c #1A666A",
"c  c #146B6B",
"v  c #1B6C6B",
"b  c #0E716C",
"n  c #1A7067",
"m  c #15716C",
"M  c #1B726D",
"N  c #0F6E72",
"B  c #146F70",
"V  c #1C6E71",
"C  c #0E7071",
"Z  c #147472",
"A  c #1C7472",
"S  c #157A76",
"D  c #1C7A75",
"F  c #167A79",
"G  c #1C7C7A",
"H  c #226563",
"J  c #2A6666",
"K  c #226A66",
"L  c #286F67",
"P  c #226669",
"I  c #236C6B",
"U  c #2B6D6D",
"Y  c #316E6E",
"T  c #23726D",
"R  c #2A726E",
"E  c #28786F",
"W  c #236E72",
"Q  c #296E72",
"!  c #326F70",
"~  c #237473",
"^  c #2B7573",
"/  c #247A75",
"(  c #2B7B76",
")  c #257679",
"_  c #2B7579",
"`  c #247C7A",
"'  c #2C7C7A",
"]  c #327574",
"[  c #387576",
"{  c #337A76",
"}  c #387A76",
"|  c #34767A",
" . c #337C7B",
".. c #3B7C7C",
"X. c #427E7F",
"o. c #148277",
"O. c #1C8177",
"+. c #1D837D",
"@. c #2C8076",
"#. c #23827D",
"$. c #2C827D",
"%. c #238A7D",
"&. c #2E887F",
"*. c #33827D",
"=. c #3A827E",
"-. c #1D7F80",
";. c #217F81",
":. c #2C7F81",
">. c #347D81",
",. c #3D7E81",
"<. c #1E8481",
"1. c #248482",
"2. c #2C8482",
"3. c #248A85",
"4. c #2C8A84",
"5. c #268D89",
"6. c #2C8C89",
"7. c #378184",
"8. c #338582",
"9. c #398581",
"0. c #3B8682",
"q. c #3B8681",
"w. c #3F8782",
"e. c #3F8384",
"r. c #3E8484",
"t. c #3C8583",
"y. c #348A85",
"u. c #3A8983",
"i. c #3C8983",
"p. c #3C8B85",
"a. c #3E8B85",
"s. c #3D8D86",
"d. c #3B8A85",
"f. c #318788",
"g. c #38878B",
"h. c #328889",
"j. c #328C8A",
"k. c #348D8A",
"l. c #3F8E89",
"z. c #3B8D8A",
"x. c #279187",
"c. c #2D908D",
"v. c #399087",
"b. c #35918C",
"n. c #3D938A",
"m. c #3C928C",
"M. c #3E8F90",
"N. c #349490",
"B. c #3C9492",
"V. c #3E9A94",
"C. c #428582",
"Z. c #428584",
"A. c #488586",
"S. c #438883",
"D. c #408B87",
"F. c #408D87",
"G. c #428A86",
"H. c #418588",
"J. c #448689",
"K. c #468D8A",
"L. c #468C8C",
"P. c #438D8A",
"I. c #4A8C88",
"U. c #498F8F",
"Y. c #4B8C8E",
"T. c #498D8C",
"R. c #41918A",
"E. c #42918B",
"W. c #44918B",
"Q. c #43928C",
"!. c #46938D",
"~. c #43928D",
"^. c #48918D",
"/. c #48958F",
"(. c #4F948F",
"). c #49928E",
"_. c #498F91",
"`. c #439592",
"'. c #4B9491",
"]. c #449A93",
"[. c #499892",
"{. c #4B9B96",
"}. c #479D99",
"|. c #4A9D99",
" X c #509794",
".X c #559A97",
"XX c #519998",
"oX c #46A097",
"OX c #47A299",
"+X c #4BA099",
"@X c #50A19A",
"#X c #53A29E",
"$X c #59A29B",
/* pixels */
" .] ] ] L @ O - j  .I ' _ x Q >.P  . .W  .P O O 1 m Z N 1.<.D G o.F 1.` M - o 8 ] Y Y.] Z.,.U.I.!. .a.R.n.r - o 2 l I ) ) ~ ) ) ",
"Q  . .^ & X @ r ' ~ W >.4 Q _ a _  .^ | q X @ 4 v c B 1.+.m c Z Z <.#.c - X t w.{  .Z. .r._.K.K.( ^.a.~.e & o r r R _ ~ ~ ^ _ _ ",
"| ^ ^ % @ k e 1 v ^ >.0 x _ W W  .^ ] H @ O 1 k Z c ) ` f m m ` 1.) c - . 9 I.} ] ^. .0.0.a.K.0.W.a.!.l @ O 0 h l ~ / ` _ A ) ) ",
"]  .< O z 2./ c e ~ p p >.W x _ ) ~ H X O O h M v M ) f m f F Z B v & . y } C.=.{ i.0.*.l.~.P.u.i.[.l X @ 0 h r M ~ T ( ) ~ ' _ ",
"..< O c j.` G ) f.i i :.W x ~ ~ x x # l L O % l v Z k d k / M / j @ X 7 (.} S.] t.=.=.t./.R.n.v.@Xj % @ 2 r x ` ) ~ ` ~ W _ / ' ",
"h X e $.#.D F ` ;.A 3 x x ~ ~ I j % T ( $.2 O * I e d d M m A ~ %   * =.S.=.} ] I.Z.{ ^.R.=.!.~.v & O r h c W v B _ V ) _ ~ $.A ",
"@ e c ` G 2.G 1.` f c u v ~ I p X r *.' l v H O * j k m M M T O X ; R } Z.=.*.{ U.{ t.(.s.^.P.=.O % 2 r k B V ~ ) V ~ ~ ~ / ~ ( ",
"e c 1.G 1.;.G G g g A B 6 h - % 0 0.T v E *.i.{ O @ k ~ m M O O * =.R C.=...] C.^.^ !.W.W.W.{ @ @ 2 z z B A V V V ) ~ _ / E ' K ",
"D j.#.#.5.1.F C C G ` g c % & I 0.K I | r.a.{ =.R o * K l # . # t =.] G.t. .^ XX .r.'.l.P.T & @ 6 s B B V V V z ) V A A ) ' L @ ",
"b.4.G c.;.A F <.F ;.A B 3 %  .8.l ( 9.Z.Z._ 0.i.$X8 X $ $ O O r G.E =.t.| ^ Z.D.^ D._.`.E % % h h z z z V V z V ) A A ' ' v @ 0 ",
"b.D +.#.G C #.G ;.c A , @ 8.~ ( 8.r.G.=.| T.U.P.*.=.$ .     * *...] Z. .g.x {._ a.P.| 0 % & 5 d g f V B f u z ) V W ) ) W @ 0 d.",
"A 6.1.+.Z +.S 1.V ' : % *.~ ' 8.z.*. .t. XZ.] 0.G.{ O X   H l Z.| A. ...P.0.7.' r.I 4 + % s c s d g B i i c V c V :.) x % 0 m.` ",
"2.1.2.S #.+.#.` / , @ ' ( 7.*.z.*.8.G.r.{ r.K.W.C.@ X O y J { e.[ C.| I.| _.,.a.l 6 # # h f u s s g g s c V B V 2.v l % 6 y.#.6.",
"1.2.G 1.D #.m A 1 X ^  .*.a.8.( s.=.=.=.~.a.I H O   . y *.R =.[ I.[ e.e.H.9.^ L 2 @ # e e z s u s g f f B x V ' x W + h ' 4.4.N.",
"3.G #.2.#./ A , X / *.*.=.( 8.a.*.*.P.' ) _ I.O . O } ] K Z.} Z.[ Q U.e.J...l t # . O t e s s f s g f z x ) ) I v X A / B.1.b.4.",
"1.4.2.4.D v 1 O ~ *.$.'  .0.8. .=. .~ 8.`.d.@ O O ] K } X.X...] U I.Z.r.>.l 0 O @ < O = 6 3 z s s c f c ) V h x + ) / 6.1.b.4.4.",
"$.4.$.` m 1 @ ^ 0.) ' d.y.8.8.' *.a.K.^.=.O . $ J ! ,.,.| X.Y Y Z.X.G. .M 2 # # k k 1 @ % p h s s z f ) z s v % ~ g.` N.f.N.f.:.",
"4./ ' M 1 O W >._ z.a._ ~ 8.8.z.l.t.e.P X X $ U >.,.| Q ..! J Z.A.Z...( 8 O & m d M / - % : i h f z A z i x % ~ `.~ N.2.j.g.2.f.",
"$.$.l 2 @ ~ y.y.z._ (  .P.t.d.*.8.] 8 @   $ ..[ | ! >.,.U P A...Z...R 7 O % ~ m m D ` n , % 2 h x c 3 x h % ) }.B D 2.`.V.2.' 2.",
"$.v e X W z.k.~ A 8.l.'.9.'  .I L 4 O . @ 9  .! U X.,.J U X.C.e...( 2 X & ( D m #.D b G D , % 6 6 , x p % ' [.M ' }.k.[.~ _ 8.f.",
"^ 1 @ ) d.' ` y.R.y.' T K R K R 0 O O O # 8 ! ] X...P P C.....C.{ 2 O - ( D Z +.` m 1.Z m m r # % 0 4 @ T `.D @.m.u.#XT ~ 8.y.$.",
"4 @ ^ 8.` 2.y.' ~ ~ ^ (  ...X.* O & v j @ O R X.] q U A.[ C.X.] 7 X = *.D S #.#.D ` ` D O.n E k % X X ) |./ @.y.n.[.^ ^ d.$.$.y.",
"% W 8.8.8.:.~ '  .z.R.s.R.G.$ X @ M n $.r @ 8 y q [ Z.^ Z...X.9 @ = ' D Z +.G <.G 2.D D Z D / K %   ' `.M #.=.~.`.I E d. .' B.E ",
"x >.8.' _ 8.0.a. .T l j j * O O h c 4.m @.v X * [ X.Y Z.[ [ q X & @.#.D +.<.3.` 5.G 4.A M / k & X  .z.n y.n.~.v.$.*.y.@.=.n.$.e ",
"^ y.>.8.8.r. .l I *.K.'.7 X O e T m.m #.#./ 1 O @ q A.[ [ t X % @.%.O.O.#.4.G c.+.1.Z #.D n = O / 8.*.`.}.m.y.z.u.u.$.y.n.d.0 % ",
"8.' 8.0.t.j ^ ^  ... .8 O O 2 ( n.A @.` / j.l =   O > Y q X , $.&.+.o.%.4.#.1.6.1.D #.M / * o / ~ 4.].m.y.' l.u.2.y.$.y.k.z + 9 ",
"` 8.7.' { P.U H  .Z.q X O r *.R.M ( ' 2.4.k j./ * X O + @ - +.x.o.3.%.4.2.#.b.%.1.%./ *.@ X n M B.V.4.8.>.z.y.2.2.2.b.y.p + p >.",
"8.8.'  .Z.P { =...8   & t $.n.M *.) 8.$.n j.$.&.~ # X O & $.x.o.x.#.4.1.j.b.4.1.S #.*.% O 0 ' ].4.6.2.2.z.8.8.y.@.2.y.z % Q :.' ",
"8.' *.*.T C.] [ q X # ( $.n.l y./ 8.*.v n.2.&.@.k 2 o - @.x.o.<.1.N.2.2.4.y.y.D $.@.& O 6 d.].#.b.) ` 2.n.2.8.$.2.z.h % x :.` 2.",
" .^ 8.^ 9.] [ j   * *.^ n.T n./ *.$.' y.8.2.' k 2 o ; O.&.O.5.3.3.1.4.j.v.4.@.*.T -   2 n.~.@.8.n $.' z.` b.8.y.l.0 X & ) ) 2.:.",
"h a.{  ...{ t O ; *.E W.v R.n y.&.D &.&.y.) P.2 O w S O.+.x.1.4.j.y.6.y.v.d.&.E # O - n y.&.$.*.l.$.z.$.z._ 8.8.< % , x A 2.z ` ",
"(  .^ t.^ 0 O * ^ *.G.l @.^ m.$.E k.y.%.` [.h X # r %.%.x.O.6.y.:.6.j.m.n.~ T # . = n #.&.#.$.>.z.*.y.8.~ a. .< % : x ~ ' A ' ~ ",
"*.E =.{ r O # R D.r.T ( ' m.( ' n.=.@.$.].n o O e #.4.#.j.D 1.1.6.z.j.n.D 5 O O - *.$.#./ $.:.z.~ *.( ~ 8.' - % 6 z A :.V A _ W ",
"} } *.r # # { K.G.T d./ z./ *.u.u.( v.~.k o = M &.&.$.4.1.D #.4.4.B.n.M d @ o 1 8.' y.` 8.$.f.) :.` T *.*.= @ < z ~ V ) V >.I P ",
"} } t o # t (.=.T 8.' n./ &.n.u.&.R.u.t O & n / D E ` ` D %.y.8.m.2.n v % @ 2 u.@.$.:.2.6.8.:.M.c ~ ~.8.; % 6 v ~ c :.f ' _ x I ",
"..H X # r *.*.{  .a.n.T n.n.&.y.m.u.r O = r n f m m ` $.j.y.y.&.$.c l % X l l.$.2.2.' 2.` 2.h.W $.z.~ < X % l ~ c ` z ~ :.I h 8.",
"U O @ 8 *.w.R.@.u.u.n #.y.&.~.n.v.1 O = k d k D #.&.6.$.' $.' &.k r @ O 0 ~ 8._ k.) g.D :.8.z 2.8.v 3 + @ X 4 M ~ B v _ ~ p ~  .",
"@   8 =./.W.{ R.=.k @.$.v.v.n.*.1 O - k A D $.$.$.D ` u.*.*.T r r @ O # % k ' y.) 8.c z.' x y.k.c 5 % < @ @ % v ~ c ~ ~ h W  .( ",
"X 9 F.[.=.&.v.*.T n.v.n.v.&.T 1 X 2 M G ` #.1.A ` 2.*.' M E L r o . T $.1 & ` ~ g.V f.~ v M.$._ v % v v h 6 & % i ~ l h ~ '  .I ",
">  X).=.v.n.=.=.u.v.n.&.T T 2 O < / / ` D m G 2.' ( M T *.E 2 O X @.@Xd.M & 3 8.W g.~ V 2.:.>.l % x v ` ` T ~ p % & h l ( ' R * ",
".XW.=.].&.R.v.=.~.n./ ( T 2 % * E v c A ) / G ~ T M ' n.*.- O o { /.u.y.( ~ % z k.V ~ ' $.$.Q % x v ) G ) A _ ' 6 O r @.^ E * . ",
"=.W.R.&.n.@.F.v.@.T u.( r O . # l M ~ c c G A c ` $.y.$.2 # O L @Xn.v.@.m.`._ & 3 v ) :.8.) @ 0 A G ` ) ~ ` $.T K 2 O T ( # X [ ",
"F.*.*.*.*.n.@.( *.P.( 1 O O $ X % p 6 v M z M ' $.y./ 2 @ O r ~.oXy.n.`.m.m.V.` % 3 >.2.I % h ~ ) D ;.) / 2.A c v ( r O $ O Q  X",
"{ *.=.=.@.*.R.=.s.=.; O = 8 0 8 % + x v / $._ $./ ^ r O O K }.OXb.m.y.n.n.2.8.}.z.3 x Q % h / ` ` #.D ` ' ` v M ' *.E $ @ K G. .",
"w.R.*.=.n.&.!./.P.0 O , I 7 9 a p + & ' ( ~ @.b @.T X O E +XV.n.m.n.B.4.n.V.oXy./ ~ & O ~ $./ D #.#.c ' :.Z v ` &.@.r O 7 R T { ",
"F.S.&.=.*.=.p.S.j . - L 0 0 Q q Q a + < ) E k *.^ O X { ].].b.j.V.b.b.B.n.2.M / d.~ % ^ M A #.#.G c D ) A D ' y.*.w O < ^ =.i.*.",
"} *.*.( =.p.I.t   8 Q p 0 I 7 P P a I % 2 T @.R O o { `.n.k.V.V.B.B.k.2.2.2.n.n.$.# T / / ` 1.A ) B :.;.) j.8.@.r o # @.*.u.a.K.",
"G.G.u.R.u.u.8 X 4 I I 0 l j a Q a P  .^ = r K O O E n.`.].].n.2.' f.j.B.m.m.m.^ % M ` D 1.D A D ) :.D ) k.y.' r o = ( p.s.l.0.^ ",
"=.( @.@.@.1 O ; ^ Q p W W 4 _ a U ^ ^ K j % O O ( +X+X].n.*.*.`.B.m.B.m.B.z.l @ k ` 1.1.Z -.` G $.D ` 4.@.n O o ; =.W.=.&.E @.I.",
"*.n.n.@.r O 1 / ) x W W x W P P ^ U Q K < O O T !.[.u.*.8./ d.8.z.n.k.8.' 0 % x ' 1.F F -.;.:.2.F $.2.k.O.O o L (.n.=.=.=./.=.=.",
"u.v.E r # - / ~ v ) W x W | a >.U ^ j 4 X O K ].v.*.u.*.8.l.z.v M _ *.) : % v 2.#.S <.3.1.1.F G 3.4.j.&.= O = =.=.w.@.I.S.L @.@.",
"@.E r # 2 T ^ ) x V W a _ a _ Q ^ K ( # @ v ].v.~.].8.u.y.y.n.B.V.`.E % % I 5.-.S <.1.1.+.F 3.6.6.2.u.= o O r *.w.w.(.L L =.S.w.",
"$.2 @ % K ^ ( M h ~ h W _ | | ^ P ^ < 1 b &.].].u.z.z.`.m.z.m.k.z.~ @ O A 3.G F 1.-.3.S G x.6.4.f.2.% O o O =.F.=.S.L E =.=.@.*.",
"< O - T R T ^ h ) x _ I x Q I P  .q % r #.V.v.*.m.m.`.8.8.j.2.8.h % @ v G S <.<.-.;.G 3.4.3.6.1.8.%   @ ; o = L =.} E =.@.@.=.&.",
"@ < I I E ' v ) j _  .) I R U  .0 X n / /.&.4.V.].8.2.z.B.M.k.B X % v ` F <.<.F F 5.1.:.6.<.%.v.%   4 0.{ #   O E F.&.*.R.@.O.n ",
"* ^ ^ v ' l ~ ^ ~ 8.I ) I P } 7 O T *.~.u.v.B.y.8.n.~.8.:.>.V 6 % 1 M G <.F C -.5.1.5.5.#.4.d.&   $ *. .s.H . o O E =.=.r n &.L ",
"I I T _ ) v >.j ^ j ( L P =.9   ^ g.^.*.8.l.l.k.V.~ v ' ' B s % r M #.G Z G 3.<.<.x.<.5.c.b.= X & t.*.d.*.T n r o O R t $.W.K X ",
"^ v _ ~ l 8.v ^ I { R K ] q   ^ r.a.0.( `.0.a.a.Z c >.g.8.f % i ` #.S S 1.<.1.5.<.3.<.c.y.1 X * *.i.t.0.( T &.=.= o o 8 ( l X @ ",
"~ M  .~ _ W ) ~  .K H ..q . J J.7.0.8.P.0.0.0.~ ' g.c F f % x ;.D Z g m 6.5.1.;.3.x.x.&.= X - L =.=.R.*.E =.d.' =.= . . * @ @ l ",
"T ( ~ W  .W _ | I ^ ..9   H Y. .P.^ 0.*.7.r.>.' 7.I 2.c % x ) A Z b g b F -.6.1.6.O.#.1 O $ ^ =.r.a.F.( @.y.~ m.E ~.r . X @ j v ",
"( ( v  .Q _ | ^ R { 8 o 9 A.{ I.l `.r.>.0.e.W  .*.' 0 @ c / Z A B Z Z +.1.+.+.F 1.k.2 O O =.{ i.a.t. . .n./ `.~ {.&.=.o O r M A ",
"( v _ ^ _ ,.Q  .{ 9   $ A.{ 9.^ 0. . . .Z.^  .' T h + : z c G Z Z ` 1.1.G D +.j.k.1   % s.@.=.t.K.0. .`.) B.A }.D ( = o 2 v M ' ",
"~ ^ _ _ ^ >.,.] * X @ { *... .{ I 7.(  .8.' 9.^ 4 @ % j Z ` m Z ;.;.G F 1.3.4.#.- X - *.i.^ i.F.0. .`.~ B.) V./ t = O 1 v ~ ~ ` ",
"R  .( ^ | | a X X * { =.L *.I ] ^ ^  .*.~ 8.' 8 O @ h ~ A m <.<.D D 1.<.+.<.D - O 2 L P.( p.=.F.r.P.:.B.` V.%.e = o 1 v ) ~ ^ ^ "
};
