/* XPM */
static char *_2096ae26c1f495cb9752838b03bdfad1T9Hpd5tSGArH7vt[] = {
/* columns rows colors chars-per-pixel */
"64 64 210 2 ",
"   c #660E00",
".  c #6B0D00",
"X  c #740E00",
"o  c #671400",
"O  c #6D1500",
"+  c #6D1A00",
"@  c #731400",
"#  c #7A1400",
"$  c #741A00",
"%  c #7C1B00",
"&  c #762000",
"*  c #7C2201",
"=  c #7E2A06",
"-  c #7C270A",
";  c #821600",
":  c #831D00",
">  c #891D00",
",  c #842301",
"<  c #8B2301",
"1  c #852903",
"2  c #8B2B03",
"3  c #842709",
"4  c #8B2509",
"5  c #822B0A",
"6  c #8B2C0B",
"7  c #932501",
"8  c #922B04",
"9  c #992D04",
"0  c #932E0C",
"q  c #9D2E09",
"w  c #8B3001",
"e  c #83300E",
"r  c #8E330A",
"t  c #943105",
"y  c #9D3105",
"u  c #94330B",
"i  c #9B340D",
"p  c #96380E",
"a  c #9A390D",
"s  c #8E2D13",
"d  c #932E10",
"f  c #8D3513",
"g  c #8E371B",
"h  c #943311",
"j  c #9C3413",
"k  c #943913",
"l  c #9C3A13",
"z  c #9A3718",
"x  c #963919",
"c  c #9D3C19",
"v  c #A62F05",
"b  c #A52E0C",
"n  c #AB2D0D",
"m  c #A33304",
"M  c #AB3302",
"N  c #AB3905",
"B  c #A3340C",
"V  c #AB340C",
"C  c #A53B0D",
"Z  c #AD3B0D",
"A  c #B13905",
"S  c #B23509",
"D  c #B23C0D",
"F  c #BB3F09",
"G  c #A23613",
"H  c #AB3513",
"J  c #A43B14",
"K  c #AC3C14",
"L  c #A43718",
"P  c #A83719",
"I  c #A43E1A",
"U  c #AC3D1A",
"Y  c #B23513",
"T  c #B33C13",
"R  c #BA3E14",
"E  c #B0371A",
"W  c #B53D1A",
"Q  c #B93D1A",
"!  c #B83F22",
"~  c #AF410B",
"^  c #B44207",
"/  c #B3430C",
"(  c #BB440D",
")  c #B5490E",
"_  c #BB4A0C",
"`  c #A64115",
"'  c #AD4214",
"]  c #AC4814",
"[  c #A5421A",
"{  c #AC431B",
"}  c #AD491D",
"|  c #B44414",
" . c #BA4414",
".. c #B54A14",
"X. c #BB4C14",
"o. c #B4441B",
"O. c #BB441B",
"+. c #B54B1C",
"@. c #BC4B1C",
"#. c #BD5215",
"$. c #BF5816",
"%. c #B6521E",
"&. c #BD521C",
"*. c #BF5B1D",
"=. c #A54323",
"-. c #AD4522",
";. c #A54924",
":. c #AC4A23",
">. c #AD4C29",
",. c #B44422",
"<. c #BB4522",
"1. c #B44B23",
"2. c #BC4C23",
"3. c #B34C2A",
"4. c #BC4D2A",
"5. c #AD5026",
"6. c #AD522C",
"7. c #B55224",
"8. c #BD5224",
"9. c #BD5925",
"0. c #B5542B",
"q. c #BC542B",
"w. c #B65A2E",
"e. c #BD5A2B",
"r. c #B75236",
"t. c #BC5432",
"y. c #BD5A33",
"u. c #BF5839",
"i. c #B96034",
"p. c #C14C0F",
"a. c #C4520F",
"s. c #C24712",
"d. c #C14D14",
"f. c #CA4F14",
"g. c #C1461B",
"h. c #C24C1C",
"j. c #C25215",
"k. c #C3541C",
"l. c #C9551E",
"z. c #C4591C",
"x. c #CB5B1D",
"c. c #C7601E",
"v. c #C04621",
"b. c #C24D23",
"n. c #C54D29",
"m. c #C54F2B",
"M. c #C34D2A",
"N. c #C35522",
"B. c #C45623",
"V. c #C35226",
"C. c #C55025",
"Z. c #C05624",
"A. c #C65624",
"S. c #C35424",
"D. c #CA5624",
"F. c #C35A20",
"G. c #C65827",
"H. c #C55A24",
"J. c #C95A25",
"K. c #C85A27",
"L. c #CB5C27",
"P. c #C95B24",
"I. c #C25328",
"U. c #C35729",
"Y. c #C1562A",
"T. c #C3562D",
"R. c #C4542A",
"E. c #CA562A",
"W. c #C65A29",
"Q. c #C55A2D",
"!. c #C75C2E",
"~. c #C45A2B",
"^. c #C85A29",
"/. c #CD5E2A",
"(. c #CD5F2C",
"). c #CA5C2B",
"_. c #D05826",
"`. c #D0572C",
"'. c #D15E2C",
"]. c #C44E30",
"[. c #C35532",
"{. c #CA5733",
"}. c #C15F32",
"|. c #C45B32",
" X c #CA5C32",
".X c #C45B39",
"XX c #CF5F39",
"oX c #D05C33",
"OX c #CC6025",
"+X c #C6612C",
"@X c #CC612B",
"#X c #D0602E",
"$X c #D2632F",
"%X c #D2682E",
"&X c #D86A2F",
"*X c #C76033",
"=X c #C26134",
"-X c #C46333",
";X c #CB6231",
":X c #CB6233",
">X c #CB6139",
",X c #C8623C",
"<X c #CD623B",
"1X c #CE693E",
"2X c #D16330",
"3X c #D16533",
"4X c #D26A37",
"5X c #D06738",
"6X c #D2693C",
"7X c #C86043",
/* pixels */
"g.b.b.4.c $ : P <.n.Q n.Q E T b.O.g.C.@.e.8 @ : I W O.g.h.d.@.X._ _ $.+.{ % : 1.+.) '.+.V.Q.=X=X9.!.Z.;X8.a * % I K O.@.<.@.@.+.",
"g.2.2.I : 1 : I n.O.v.M.b <.n.T b.n.<.2.t % , { | ,.O.h.X.A ^ ) #.&...` % % 0.q...J.k.A.2.G. Xe.Q.Q.:X9.2 % % I B 1.@.g.@.o.+.8.",
"m.<.1.% < 1.' m K M.<.b O.n.Y b.O.2.-.z # % I | | T g.O.D A ^ j...+.c + % ` ,X2.| |.V.j.J.@X^.~.^.;X~.2 $ : j C ' @.V.| b.g.+.o.",
"<.q.: , 8.B.@. .K W V <.2.Y <.M.2.o.z # % % ` o.' +.@.D N / h.X...a $ + y.0.T.2.U.U.N...L./.A.'.^.;Xu % : [ J K +. .+.@. .b.o.A.",
"t.< , 7.z.X.( D b.T B 2.Y O.<.<.o.i 7 3.u.: : { @.Z N ~ N @. .+.k @ $ -.,X0.2.8.Q.7.@.3XL.J./.W.;XC # , J i o.@.@.@.@.o.2. .S.O.",
"8 X J &...j._ ( b.T m T o.<.v.! G > 3.T.1.j X : ` m ~ N +.+.1.l @ @ I t.q.T.8.+.|.!.X.(.(.^.!.:X` @ , L V |  .O.o.n. .@.+.8.O.O.",
"; [ ..j.#._ _ h.( M T m W ,.P P ; I Q.| B o.0., : ` Z @.+.:.c O $ [ o.Y. XS.2.9. X1.{.3XJ.!..Xc O 1 K V  .|  . .O.Y O.O.@. .O.R.",
"` 2.N.) x.X.j./ M A h.o.B H b 7 { U.T D +.Z.|.q., % } o.:.I O + h r.W m.E.h.T 5XU.9. XW. X;XI # 4 i K  .O.R  .O.O.O.O.2.o.2.4.j ",
"8.H...l.X.l.X.^ ^ h. .o.o.< 9 @.8.K | @.G.E.@.U.e.$ * >.x @ @ d 0.2.2.C.C.2.V.!. .R.3X X=XJ # 0 K C |  .|  .O.T O. .O.O.b.M.j % ",
"&.#.l.k.s.s. .d... .2.K : t ~.X.Z @.S.E.Z.b.D. X.X[ $ + $ $ , { [.O.R.I.+. .G.n.h.'.;X~.z $ 8 K Y o.Z K  .V n O. .| h.O.b.B % :.",
"z.)  .d.s.F s.X.8.{ 1.> 9 9.....Z. XU.I.E.{.oX@.Q.t.e + + % J E.n.M.M.2. X,. X| _.D.o.8 @ < V D R D T | V V R O.O.g.b.2.J : } 9.",
"#.z.X.d.( s.l.X.+.+.: 7 I...&.F.H.8.q.{.E.M.8.!.|.;.+ o 5 >.W E.@.E.O.E.q..X1.Z.J./ 8 % h I | R S T R D K  .O.O.g.@.O.K : :.~.%.",
"$.#.j.^ d.h.( ..+., 2 q.o.k.N.N.Z.Q.E.S.I.Q.{.|.;.* $ 3 3.1.C.E.S.2.n.|.1.{.o.Z.J a @ 0 I K D M V R T S | R T O.2.o.i % ` e.k.F.",
"z._ #.D.@.k...+., < 1.+.^.D.N.Z.A.2.I.XX|.2.1.c $ O , y.,.2.I.2.I.o.[.G.{.2.7.[ u $ 3 =.K R v V T Z Q R R Q O.@.T C , [ ~.F.k.x.",
"l._ j.X.@.+.} , < %.j.D.@.@.G.V.D.E.J.<.@.y.>.$ # 0 .X{ 2.[.Y.Q.2.4. XE.h. .K u + + $ -.H V V T Z D R R R O.O.o.G ; 7...@X$.P.j.",
"j.l.j.l.+.} , , 7.k.h.X.D.V.Z.V.b.g.h.G.1X:.O O h 3.,.R.m.Y.1.` ,.XXS.Q.X.Z J # 5 g $ % j H K T D T Y W g.Q U B : e.+.OXX.x.x.H.",
"j.j.j.+.{ : : Y.Z.X.k.D.N.Z.2.b.`.E.;X*X;.+ + h ,.m.[.4.].4.H | {.Y.Q.o.K i # 0 ,.J l $ * [ H | D T o.<.Y O.b ; +X%.$.c.$.H.H.&.",
"&.z.+.o.< : t.I.Z.OXk.| h.~.E.E.D.V.1.z + + c 0.M.m.M.].,.U o.^.[.XX2.o.i % < +.m 2.7.t # r J U K Y O.H <.B ;  X+X) OX$.OXF.#.%.",
"&...{ 2 # q.Q.A.S. .@.^.!.~.@.2.O.o.x @ $ z q.[.4.,.m.,.H O.{.S.{.<.{ 0 @ r 0.'  . .| +.a # j E K U H ,.j # ~./.) ^ z.%X#.) &.&.",
"8.{ < : 7.;XX.k.@.(.G.~.8.| @.o.| j $ o 6 =.m.W <..X<.K o.[.b.{.M.{ u # 2 w.| +.X.@. .@.} 8 ; L G q o.0 : }.+X~ #./.$X&.N #.&.*.",
",.< : 8.@XX.#.H.A.@.2.D D C J I J @ 3 , , U ,.M.R.O.K ,.{.Y.{.4.o.t @ u 7.' +.&.@.@.d. .o.o.,.; X U u , 9.H.| X.B././.m &.F.X.l.",
"4 > q.9.X.&.H...+.+. .h.V.{.0.1 @ 6 3.-.; ; 4.m.W Y 2.Y.Y.{.<.,.u X t 0.o...j.X.+.@.@.2.| O.{ ,.4 @ % =X@X~ X.~.3XQ.N k.8.8.B.k.",
"> t.U.&.&.#...+.8./.E.E.C.2.* O r 5.' 8.U ; j L U m.4.2.[.4.3.d % p 0.o.| j.X.h.b.2.X.+.@.O.2.=.# * =X9.~ &.z.OXS.D ..B.&.N.!.Z ",
",.4.S.B.%.&.~.~.@.D T T ,.1 # 1 ] ] ^.| I.! X 0 3.3.Y.[.,.! j $ u 0.X.X.d.X.A.+.V.@.8.o.T S.` % $ ,X7...OX@X/.N.k.&.H.j.&.!.} i ",
"+.U.S.S.^.8.+.D  .V. X.X6 @ 1 ` %.F./ D. .n.0 # % z [.,.3.6 % t e.%...X.k.k.2.A.@.S.+.+.S.[ , : e.%.8.3X^.~.z.D.z.j.#.k.F.8.a $ ",
"V.X.b.R.7.| @.D @.<.3.6 @ 1 l N.F.| D. .h.n.{ 1 $ O z >.h % a 8.&.j.X.j.b.V.V.V.N.X.@.n.[ % % 7.) H.OX^.Z.9.H.F.z.j.z.H.Q.u % ;.",
"B.Z.Z.@.g.V. . .q..Xr O 3 [ U.A. .k.X.D.d.@.~.w.3 $ % $ & p OX#.j.k.k.B.@.V.k.@.&.X.2.1.* % } %.&XOXF.8.A.H.k.k.&.#.8.U.t % 7.7.",
"k.H.@.2.b.O.b.O.3.d . 3 [ e. X/ C. .C.h.h.B.%.y.6.5 + $ p 9...#.k.D.k.V.V.^.H.j.&.X.0.$ $ I }.:X#.j...&.h./.X.l...N.!.a * 7.7.%.",
"S.O.9.S.b.O.W 4.6 . h y.U.S.| H. .D.b.@.k.H.F.+.;.f $ k 9.#.#.#.k.A.B.B.B.J.@.&.7.1.* % -.<X;X&.L./ | j.H.X./...S.Q.0 @ 1.7.&.&.",
"2.8.8.o.Q.<.1.0 # c 0.1.E.@.V.@.).8.X.z.H.H...' r $ k 7...#.k.j.N.Z.D.V.A.H.8.8.:.% O l  XE.%.%./ ..D.k.z.H.X.Z.8.i X 8 2.2.k.j.",
"K E.T  X,.3.z @ u 8.U.Z.| D.k.V.b.8.z.z.z.) -X1 @ a X.+.k.H.V.V.&.F.F.G.Q.U.[.=.& $ i @.C._.X.H.k.J.j.L.H.2.e.q.< # H +.+.b. .@.",
"O.b.n.2.3.h O j 1.!.~.Z %.@.J.h.@.Q./.j.#.;Xw @ : ' B.x.&...A.N.F.8.8.^.E.o.;.@ o 6 1.h.D.( B.&.^.@.H.....Q.0.< ; G @.O.h.| b.| ",
"R.2.~.1.0 @ 0 t.XXA.| X.&.@X@.b.G.@X%.*.-Xp @ % ] 9.z.k.&.X.8.S.~.D.Q.E.o.q $ @ z e.@.B.| k._.h.d.@. .+.~.+.< % K K  .h.| h. .K ",
"m.4.{ i @ 6 y. XI.2.F.@.H.X.Z.~.Z.+.+X=Xa # < 0.~.N.&.k.X.| V.S.R.S.E.+.' : $ l 0.8.%.@.&.k.h.j.d.^ &.!.1.< , L ' | b.g. .@.| J ",
"<.3.c # 7 +.5X2.o.2.G.).&.H.H.N.H.~.0.r @ 1 <.2.' | @./  .N.R.R.R.Y.o.-.3 @ ] ~.Z.@.A. .D.h.l.C./ k.%.7.1 6 L ,.<.@.g.S @.<.H <.",
"t.c @ < o.~...%.9.!.R.@.{.G.F.z.9.e.r @ u o.V V V  .@.V.D.B.C.2.2.I c % @ 0.2.&.@.E.| $X .l.D.X.X.z.@.2 @ 6 ] ,.o.+. . .m.| H M.",
"=.@ , { 8.~.~.%.Q.!.T 2. X~./.OXe.w O 8 { G O.h.S.n.E.@.2.S. .| ` c + + [ 1.Z.@.S.h.D. ._.h.| k.A.' t @ $ % I { O.g.D g.W V 2.M.",
"$ % { {.:X~.N./.&.Z M.E.R. XH.%.2 O u 1.| b.b.h.g.@.@.V.<.T O.K l $ + * , ' b.b.X.B./ D. .O.V.N.| i % c 4 % @ o.v.D b. .V 2.<.2.",
"$ [  X+X9.U.!.&. .A.E.E.(.2.} 1 @ J <.<.2.8. .+.b.b.v.O.K +.1.l $ + w.0.a ; @.V.2...D. . .D.@.2.G ; -.1.-.I 8 : H O.R K o.<.e.} ",
"l 7X:X8.:X~.H.Z.~.^.Q.Z.' } r $ j ,.<.O.O.+.+.7.@.Q D h.G.1.k + & y.-XH.+.< m 2.O.Z./ @.S.S.Z.K ; o.o.1.+.{ 1.J ; 7 Y o.8.4.{ : ",
"6XQ.}. XZ.~.~.~.+XF...] 7.p o f 1.<.Q Q @.@.{ { ' ' A.E.+.l @ $ w.i.F.X...+.* J A.o.o.@.8.U.J ; '  .d.X.X. .V.2.G # U 4.3.3.: # ",
"Z.;X~.U.Q.S.!.U.} %.H.+.r O $ 3 [ o.W  .Q o.{ { <.S.A.2.i # % 5.=XOXX.k.H.~.0., 9 R 2.q.8.' : C ..X.d.d.( X.S.K J G % 4.>.: # r.",
"9.%.A.V.A.A.2.7.W.~.7.a % $ , # 1 l m T T T | q.V.G.,.l + @ ] @XOXj.&./.N.H.!.8.: i [.T.[ : Z @.) j.j.s.d.h.T D C } ` $ , * r.7X",
"8.%.A.E.m.{.~.~.e.7.2 @ 6 ;.z j $ , K  . .2.2.2.@.1.L $ $ 5.1XOXx.x.L.@XB.L.k.!. X7 [ J , 8.@. .d._  .h.h.O.T K 2.~.6.* % 3.u.3.",
"%.+XE.E.C.C.Z.~.y.1 @ z ,.q P I I ; 2 q.1.+.b.| 4.I # % 6.4X+Xc.x.z.J.k.A.(.F.A.+.-., % 8. .h.h.s.d.N O.h.T | @.A.%.t * l 1.{ ~.",
"-X~.2.2.I.4.~.}.0 @ z <.n H H b ! U # 2 1.+.o.G.{ , : 3.6XF.*.z.x.OXF.OXL.@.h.&.U.+.1 1.@.h.d.h.h.N / h.D / 8.G.S.t % l 0.!.U.9.",
"] %.+.b.C.Q.y.k @ j v.Y n Q n Q E P 3.> j 1.4.U % * w.-XF.OXOXF.F.H.F.k.X.F.A.~.{ < @.b.X.h.( X.| T j.X.X.V.V.9.8 X i {.q.S.;X X",
"-Xe.;XQ.R.|.0 @ I ,.W n Q Y E Q H ! m.4.7 L -.: * 7.-X+X@XH.OX&.8.N.F.F./.N. X{ < ..X.s.h. .X./ / h.X.X.F.A.7.9 X j e.Q.{.XX7.@.",
"9.R.2.Z.+.8 # j 3.o.K W Q H <.H <.<.<.,.U ; $ % w.6X$X@XH...X.V.H.OXOXH.8.~.[ : | h.f.p.X./ X.X.#.X.X.k.8.` % @ l e.*X!.9.1.8. X",
"Y. XQ.U.J @ J 4.o.o.o.O.V O.W H M.,.W W j % # 6.|.@Xk.X.| +.Z.V.H.OXz.8.8.i , ` @.j._ p.d.X.&.#._ j.&.~.1.% % -.e..X|.2.U.~. X+.",
"{.I.1.J % i 1.1.b.Y W H W O.n n.<.,.U H # % 1.-XW.@...+.&.B.k.) ....&.+., , @.H.d./ a.z.j.l.X.X.z.#.N.0., % L q.[.}.Y.XX}.1.` +.",
"9.4.[ % l { @.X.R T Q Q v.D n.O.<.U m.> : 1.=XH.@XZ.H.H.F.k.F.L.+X;X7.% : q.@.X.d.j.j.j._ _ l.l.#.H.e.* o 1 ` U.[.[.{.4.{ 7.|.~.",
"0.q : 0 3.<.+.o.O.R Y v.Q v.Q <.H m.7 0 +.~.+X@XH.Z.J.H.@X@XP.H.9.] $ % 2.d. ._ j.z.#.^ _ x.p.x.F.0.+ + + * y.:X{.R.W K M.q.n.Z.",
"2 @ d -.,.@.O.| Y R n.Q b.v.M.W E.7 < { @.OXz.j.H.!.J.B.&.X.&.&.` $ % y.X.( f.f.#.) ) z.z.l.x.&.8.$ + e e + * 3.{.m.W M.C.G.E.Q.",
"@ u ,.,.2.O.O. .R 2.b.O.O.Q U [.< > o.2.+Xk.H.OXH.Z.V.D.H.F.A.} % % } ' _ p.a._ X.$.z.j.j.&.&.9.* $ r e.5.1 o - 3.{.D.n.E.O.<.o.",
"6 3.o.O.@. .@.o.<.m.o.<.W E [.0 # 1.8.3X&.H.D.B.F.J.F.S.@.@.+.8 # J +.@.j._ _ j.j.l.j.z.#.F.8., O 6 }.+.+X` + + 1 0.Q.b.T o.}.[ ",
"4.U o.g.O. .@.D O.O.O.U E t.d # 1.~.!.X.^.^.Z.H.^...| +.@.| J ; ' o.k.j./ #.&.j.a.a.j.l.F.W.* + 2 .X~.^.@. .} u o 3 0.C N.}.=.$ ",
"! W 2.@.T D.W n.o.M.! U y.d % -.q.~.H.Z.Z.A.Q.G.Z ^ &.Z.2.G > o.X.h. ._ j.j.z.j._ x.j.z.H.1 + 1 e.U.B.h.X./ ~.}.5 o $ l 0.` $ $ ",
"W <.2.+.b. .O.<.b.o.U t.s @ -.q.Z.~.o.I.Q.G.q.o.X.&.' @.J : | O.X.( M ( l.#.#.&.x.j.z.&.1 o 2 7.~.&.J.j.+.D.S.V.e.1 $ + = & 3 ;.",
"R n.2.@.b.o.M.v.Y ` r.h . =..Xq.V.+.Z.e.<.|.<.+.8.' 8.{ ; ,.2. . .A M ^ X.X.j.z.@.j.9.1 o f :.!.H.F.X...E.E. .J.2.1Xr + + * [ { ",
"g.b.| b.1.@.2.o.<.3.3 # z .X3.R.+.^.Z.8.e.q.@.2.2.8.l # H o. .X.N ^ d.j.j.j.d.( k.e.1 o 2 w.2.Z.H.N.7.A.~.2./.@.@X+.6.O * z ' X.",
"2.o.b.@.<.2.2.2.q.6 @ 4 y.4.|.<.2.n.8.2.4.2.2.1.1.a @ < 2. .( ~ @.X.j.X.X.#.#.F.9., O 3 }.2.~.H.!.%.2.^.X./.+.@X@.} 1 % r } +...",
"o.8.2.b.o.@.y.3.s @ 4 .X2.2.2.<.K M.+.8.q.o.T.:.k $ : ` / d.) X.j.X...$.$.&.&.8.2 O u }.8.2.H.~.G.A.@XX.W.%.5X] } * # u { ,.+.@.",
"+.@.1.@.@.8.l * # s t.4.1.q.+.o.W 2.4.7.@.V.2.8 $ * [ 2. .( #.X.@.X...&.#.#.#.1 @ z -. X2./.V.^.E.`.k.J.#.OX%.C * % 0 -.1.1.<.2."
};
